HIERARCHY
ROOT Hips
{
	OFFSET 0.00000 0.00000 0.00000
	CHANNELS 6 Xposition Yposition Zposition Zrotation Yrotation Xrotation 
	JOINT LHipJoint
	{
		OFFSET 0 0 0
		CHANNELS 3 Zrotation Yrotation Xrotation
		JOINT LeftHip
		{
			OFFSET 1.62329 -1.80800 0.67318
			CHANNELS 3 Zrotation Yrotation Xrotation
			JOINT LeftKnee
			{
				OFFSET 2.57139 -7.06484 0.00000
				CHANNELS 3 Zrotation Yrotation Xrotation
				JOINT LeftAnkle
				{
					OFFSET 2.52017 -6.92413 0.00000
					CHANNELS 3 Zrotation Yrotation Xrotation
					JOINT LeftToe
					{
						OFFSET 0.23295 -0.64001 2.10214
						CHANNELS 3 Zrotation Yrotation Xrotation
						End Site
						{
							OFFSET 0.00000 -0.00000 1.10139
						}
					}
				}
			}
		}
	}
	JOINT RHipJoint
	{
		OFFSET 0 0 0
		CHANNELS 3 Zrotation Yrotation Xrotation
		JOINT RightHip
		{
			OFFSET -1.48061 -1.80800 0.67318
			CHANNELS 3 Zrotation Yrotation Xrotation
			JOINT RightKnee
			{
				OFFSET -2.63258 -7.23296 0.00000
				CHANNELS 3 Zrotation Yrotation Xrotation
				JOINT RightAnkle
				{
					OFFSET -2.54779 -7.00000 0.00000
					CHANNELS 3 Zrotation Yrotation Xrotation
					JOINT RightToe
					{
						OFFSET -0.23067 -0.63376 2.12161
						CHANNELS 3 Zrotation Yrotation Xrotation
						End Site
						{
							OFFSET -0.00000 -0.00000 1.11000
						}
					}
				}
			}
		}
	}
	JOINT lowerback
	{
		OFFSET 0 0 0
		CHANNELS 3 Zrotation Yrotation Xrotation
		JOINT Chest
		{
			OFFSET -0.02108 2.07573 -0.16981
			CHANNELS 3 Zrotation Yrotation Xrotation
			JOINT Chest2
			{
				OFFSET 0.05070 2.08439 -0.03141
				CHANNELS 3 Zrotation Yrotation Xrotation
				JOINT lowerneck
				{
					OFFSET 0 0 0
					CHANNELS 3 Zrotation Yrotation Xrotation
					JOINT Neck
					{
						OFFSET -0.10731 1.60408 0.31370
						CHANNELS 3 Zrotation Yrotation Xrotation
						JOINT Head
						{
							OFFSET 0.08411 1.65679 -0.30822
							CHANNELS 3 Zrotation Yrotation Xrotation
							End Site
							{
								OFFSET 0.03911 1.69149 -0.14146
							}
						}
					}
				}
				JOINT LeftCollar
				{
					OFFSET 0 0 0
					CHANNELS 3 Zrotation Yrotation Xrotation
					JOINT LeftShoulder
					{
						OFFSET 3.52315 0.73219 -0.54694
CHANNELS 3 Zrotation Xrotation Yrotation
						JOINT LeftElbow
						{
OFFSET 0 -5.324620 -0.000000
CHANNELS 3 Zrotation Xrotation Yrotation
							JOINT LeftWrist
							{
OFFSET 0 -3.484020 -0.000000
CHANNELS 3 Zrotation Xrotation Yrotation
								JOINT lhand
								{
									OFFSET 0 0 0
CHANNELS 3 Zrotation Xrotation Yrotation
									JOINT LFingers
									{
OFFSET 0 -0.572480 -0.000000
CHANNELS 3 Zrotation Xrotation Yrotation
										End Site
										{
OFFSET 0 -0.461540 -0.000000
										}
									}
								}
								JOINT LThumb
								{
OFFSET 0 0.000000 0.000000
CHANNELS 3 Zrotation Xrotation Yrotation
									End Site
									{
OFFSET 0 -0.468590 0.468590
									}
								}
							}
						}
					}
				}
				JOINT RightCollar
				{
					OFFSET 0 0 0
					CHANNELS 3 Zrotation Yrotation Xrotation
					JOINT RightShoulder
					{
						OFFSET -3.41766 0.93592 -0.10019
CHANNELS 3 Zrotation Xrotation Yrotation
						JOINT RightElbow
						{
OFFSET 0 -5.335890 -0.000000
CHANNELS 3 Zrotation Xrotation Yrotation
							JOINT RightWrist
							{
OFFSET 0 -3.641340 -0.000000
CHANNELS 3 Zrotation Xrotation Yrotation
								JOINT rhand
								{
									OFFSET 0 0 0
CHANNELS 3 Zrotation Xrotation Yrotation
									JOINT RFingers
									{
OFFSET 0 -0.734810 -0.000000
CHANNELS 3 Zrotation Xrotation Yrotation
										End Site
										{
OFFSET 0 -0.592420 -0.000000
										}
									}
								}
								JOINT RThumb
								{
OFFSET 0 0.000000 0.000000
CHANNELS 3 Zrotation Xrotation Yrotation
									End Site
									{
OFFSET 0 -0.601470 0.601470
									}
								}
							}
						}
					}
				}
			}
		}
	}
}
MOTION
Frames: 12
Frame Time: 0.008333333333333333
-15.574800 17.700300 2.633500 2.109400 81.759100 4.555700 0.000000 0.000000 0.000000 -22.325500 -3.306100 -7.988100 1.903100 8.661300 24.741500 0.602500 -10.981800 -14.799700 0.068200 -1.684800 -4.635300 0.000000 0.000000 0.000000 14.972400 6.976200 -27.427100 -5.293100 -13.706500 42.074100 -0.855700 -4.954900 -19.951200 -0.145400 -2.457000 6.770500 -2.649300 -1.113400 5.249600 2.555600 -1.549300 0.997600 4.230100 -0.745600 -1.773000 -8.251200 1.162800 -14.021500 -1.561000 6.643600 38.006100 2.050800 1.883700 15.676900 -0.000000 0.000000 0.000000 4.563800 -3.867500 -16.282000 13.549300 -22.086800 2.656300 14.480900 17.948100 -27.297200 0.000000 0.000000 0.000000 -7.125000 0.000000 0.000000 -17.396700 57.179900 5.299400 -0.000000 0.000000 0.000000 -3.808300 4.756800 8.542500 -18.312900 -28.555900 -4.697800 -22.009400 22.666600 -4.538800 0.000000 0.000000 0.000000 7.125000 0.000000 -0.000000 3.488400 25.085400 1.683300
-15.319584 17.670399 2.560464 8.808509 83.290602 10.686068 0.000000 0.000000 0.000000 -23.710479 -2.927475 -5.843074 1.670725 8.143611 23.151135 0.536109 -11.368962 -14.277489 0.055751 -1.492240 -4.104802 0.000000 0.000000 0.000000 14.934824 7.917396 -28.528015 -5.092768 -13.487098 41.221147 -0.967796 -3.435210 -20.124603 -1.457034 -7.627154 21.588344 -3.451663 -1.055439 5.514971 2.150057 -1.533875 1.168405 4.266226 -0.739307 -1.736047 -8.306295 1.015831 -13.948098 -1.313221 6.469763 38.514024 2.154521 1.835465 15.909723 0.000000 0.000000 0.000000 4.500258 -3.729766 -16.058274 12.983459 -21.262980 2.447345 15.881515 18.831293 -28.429368 0.000000 0.000000 0.000000 -7.125000 0.000000 0.000000 -16.654228 58.569960 5.625440 0.000000 0.000000 0.000000 -3.933569 4.680518 8.994766 -18.455764 -28.736815 -4.766381 -21.808388 21.798304 -5.313064 0.000000 0.000000 0.000000 7.125000 0.000000 0.000000 3.635169 24.260938 1.823976
-15.058256 17.652811 2.481140 15.292726 84.769941 17.308932 0.000000 0.000000 0.000000 -24.459997 -3.480152 -4.767866 1.619745 8.024499 22.788673 0.512955 -12.057674 -14.294949 0.012456 -0.719653 -1.977707 0.000000 0.000000 0.000000 15.253910 8.439371 -30.059559 -4.496223 -12.792641 38.597714 -0.576471 -4.787532 -16.884390 -1.044090 -6.497054 18.234048 -3.659143 -1.114050 5.336223 1.930943 -1.625565 1.147024 4.156820 -0.787075 -1.649765 -8.164318 0.832160 -14.024580 -1.595780 6.432367 39.107950 2.026898 1.793178 16.268885 0.000000 0.000000 0.000000 3.620617 -3.467112 -14.611811 12.641824 -20.760139 2.324792 16.457265 20.071595 -28.504555 0.000000 0.000000 0.000000 -7.125000 0.000000 0.000000 -16.094931 58.770994 5.508578 0.000000 0.000000 0.000000 -4.524698 4.453736 9.797687 -18.473187 -28.758829 -4.774723 -22.031943 21.433394 -5.957391 0.000000 0.000000 0.000000 7.125000 0.000000 0.000000 3.468943 23.559196 1.796474
-14.759288 17.652747 2.432645 26.158494 85.739010 28.337957 0.000000 0.000000 0.000000 -25.278314 -3.184205 -3.260000 1.431003 7.563683 21.396450 0.460808 -12.813385 -14.087577 0.007595 -0.561918 -1.544005 0.000000 0.000000 0.000000 15.362329 8.793203 -31.464378 -3.830685 -11.931076 35.489229 -0.292514 -6.227872 -14.373863 -0.816611 -5.766069 16.107147 -4.300639 -1.118194 4.967172 1.761546 -1.658678 1.132584 4.335602 -0.807934 -1.441323 -7.701561 0.533300 -14.746274 -2.293484 6.414190 40.033380 1.683512 1.715942 17.020811 0.000000 0.000000 0.000000 2.732148 -2.661176 -15.067303 12.736533 -20.899910 2.358574 16.291815 18.772766 -28.534234 0.000000 0.000000 0.000000 -7.125000 0.000000 0.000000 -16.289991 58.762396 5.574469 0.000000 0.000000 0.000000 -5.141652 4.292358 10.891496 -18.548588 -28.853859 -4.811088 -22.189740 21.458786 -5.124489 0.000000 0.000000 0.000000 7.125000 0.000000 0.000000 3.351000 24.448521 1.666355
-14.435950 17.634878 2.360591 31.194788 86.733929 33.665921 0.000000 0.000000 0.000000 -25.450259 -3.150582 -1.708217 1.271285 7.145990 20.148718 0.442928 -13.155921 -14.060921 0.003093 -0.350877 -0.964027 0.000000 0.000000 0.000000 16.325583 8.375081 -32.634132 -3.066154 -10.800231 31.610205 -0.004164 -8.124420 -11.666725 -0.561954 -4.801363 13.342928 -3.707435 -1.094089 4.497378 1.678254 -1.584453 1.071839 3.897790 -0.776200 -1.268642 -7.560253 0.453300 -14.396940 -2.404603 6.240325 39.800580 1.568711 1.678069 16.819626 0.000000 0.000000 0.000000 1.580379 -2.021414 -15.426961 12.559197 -20.637803 2.295632 15.980779 18.015870 -28.342690 0.000000 0.000000 0.000000 -7.125000 0.000000 0.000000 -16.493668 58.508550 5.544959 0.000000 0.000000 0.000000 -5.706867 4.200592 11.510052 -18.527967 -28.827900 -4.801123 -22.331161 20.611021 -5.089380 0.000000 0.000000 0.000000 7.125000 0.000000 0.000000 3.245430 24.480790 1.611368
-14.102924 17.613381 2.318280 41.472670 87.514605 44.098481 0.000000 0.000000 0.000000 -25.606429 -2.880309 0.140046 1.084458 6.618577 18.590060 0.440968 -13.471963 -14.178702 0.003509 -0.379847 -1.043628 0.000000 0.000000 0.000000 17.366847 7.663974 -33.345991 -2.326969 -9.516370 27.424238 0.261140 -10.421966 -9.402303 -0.393280 -4.026600 11.151628 -3.784008 -1.103323 4.393951 1.836080 -1.595027 1.001757 4.103770 -0.780068 -1.275193 -7.796485 0.461316 -14.029822 -2.379715 6.229009 39.401182 1.604256 1.673555 16.505087 0.000000 0.000000 0.000000 0.377091 -1.132528 -17.321366 12.452800 -20.480203 2.258230 15.204629 16.430878 -27.744933 0.000000 0.000000 0.000000 -7.125000 0.000000 0.000000 -16.925872 57.763528 5.390390 0.000000 0.000000 0.000000 -6.439457 4.026228 11.638121 -18.614403 -28.936730 -4.842850 -22.041935 20.168033 -4.865274 0.000000 0.000000 0.000000 7.125000 0.000000 0.000000 3.462225 24.733112 1.699057
-13.743587 17.592964 2.284554 59.293315 88.126409 62.058473 0.000000 0.000000 0.000000 -25.730398 -2.010786 2.050679 0.869426 5.944366 16.623350 0.391438 -13.984841 -13.944272 0.028019 -1.029966 -2.831701 0.000000 0.000000 0.000000 18.590504 6.385759 -34.020001 -1.745115 -8.312721 23.668685 0.441999 -12.052327 -7.613013 -0.131977 -2.308615 6.360824 -3.484669 -0.961668 4.202796 1.605756 -1.392517 0.962814 3.681811 -0.680381 -1.241809 -7.207857 0.289185 -13.530683 -2.226973 5.630566 39.165568 1.452654 1.560370 16.267401 0.000000 0.000000 0.000000 -0.133347 -0.518351 -19.327463 12.160061 -20.044233 2.156831 13.675170 16.226394 -27.278907 0.000000 0.000000 0.000000 -7.125000 0.000000 0.000000 -18.212375 56.993548 5.476221 0.000000 0.000000 0.000000 -6.254624 3.905654 10.770340 -18.614086 -28.936322 -4.842713 -22.249827 19.833782 -4.534973 0.000000 0.000000 0.000000 7.125000 0.000000 0.000000 3.307795 25.081405 1.596450
-13.388080 17.556765 2.253299 78.580860 88.034023 81.525627 0.000000 0.000000 0.000000 -26.290693 -1.581015 4.157432 0.672720 5.244298 14.606846 0.378705 -13.626200 -13.653410 0.080133 -1.824342 -5.020554 0.000000 0.000000 0.000000 19.153963 5.760256 -34.462013 -1.375123 -7.420345 20.967197 0.601235 -13.786132 -7.658622 -0.027364 -1.061774 2.918881 -3.779022 -1.012883 4.453409 1.682814 -1.482349 0.851962 3.940242 -0.717183 -1.478281 -7.251273 0.261747 -13.439441 -2.253538 5.610148 39.134696 1.444145 1.549779 16.230807 0.000000 0.000000 0.000000 -1.206313 -0.030860 -20.580708 11.893806 -19.645219 2.066475 12.260429 15.953652 -26.586093 0.000000 0.000000 0.000000 -7.125000 0.000000 0.000000 -19.220427 56.047641 5.348020 0.000000 0.000000 0.000000 -6.713453 3.768950 10.745260 -18.845739 -29.226484 -4.955250 -21.499637 19.207853 -4.479215 0.000000 0.000000 0.000000 7.125000 0.000000 0.000000 3.871920 25.166325 1.862023
-13.000567 17.540792 2.235818 89.809384 87.976699 93.291272 0.000000 0.000000 0.000000 -26.395656 -0.315845 5.824199 0.482898 4.455242 12.361220 0.280963 -13.860888 -12.805968 0.039066 -1.272364 -3.498646 0.000000 0.000000 0.000000 20.121329 5.102874 -35.282783 -1.195267 -6.937039 19.528997 0.918917 -16.748451 -7.935982 -0.023222 0.956587 -2.629578 -3.832735 -1.036530 4.112924 1.773385 -1.504412 0.810737 4.057660 -0.731336 -1.324233 -7.317248 0.133906 -13.581295 -2.010436 5.371890 39.282213 1.527040 1.466523 16.334402 0.000000 0.000000 0.000000 -2.154074 0.020607 -21.125046 11.668432 -19.305569 1.991311 11.613269 16.528731 -27.117686 0.000000 0.000000 0.000000 -7.125000 0.000000 0.000000 -20.203175 56.416644 5.821410 0.000000 0.000000 0.000000 -6.959120 3.565492 10.937834 -19.000060 -29.418761 -5.030881 -21.807922 18.932689 -4.306075 0.000000 0.000000 0.000000 7.125000 0.000000 0.000000 3.641883 25.342158 1.736012
-12.593320 17.482416 2.225043 98.829224 87.619675 103.051155 0.000000 0.000000 0.000000 -26.795162 1.143219 6.958760 0.368686 3.900028 10.795678 0.285326 -13.490046 -12.659227 0.075908 -1.769659 -4.869670 0.000000 0.000000 0.000000 21.220594 3.905383 -36.357805 -1.173506 -6.875961 19.348404 1.189658 -19.361093 -11.729777 -0.160105 -1.786302 4.936555 -4.153341 -1.165051 3.849809 1.844614 -1.683402 0.610919 4.317492 -0.816295 -1.353827 -7.220997 0.043010 -13.611017 -1.959223 5.199718 39.403515 1.506236 1.412092 16.409574 0.000000 0.000000 0.000000 -2.829024 0.345957 -22.567470 11.625875 -19.241293 1.977251 12.702067 16.708179 -27.734475 0.000000 0.000000 0.000000 -7.125000 0.000000 0.000000 -19.496971 57.221465 5.989161 0.000000 0.000000 0.000000 -6.811867 3.284838 10.419668 -18.991516 -29.408119 -5.026666 -21.762773 19.284930 -4.696233 0.000000 0.000000 0.000000 7.125000 0.000000 0.000000 3.672394 24.924743 1.786265
-12.159011 17.466443 2.223843 112.910902 86.920180 118.039382 0.000000 0.000000 0.000000 -27.095450 1.277590 8.663639 0.243160 3.173384 8.761997 0.107205 -13.698862 -10.869402 0.026603 -1.053948 -2.897134 0.000000 0.000000 0.000000 22.024164 2.335626 -37.613929 -1.318511 -7.272674 20.525809 1.295582 -20.282912 -13.132256 -1.239898 -7.060660 19.895332 -4.463902 -1.480556 3.492590 1.860259 -2.108388 0.348089 4.520701 -1.023275 -1.368139 -7.315274 0.286749 -13.189122 -1.288947 5.210624 39.042299 1.797966 1.513377 16.066705 0.000000 0.000000 0.000000 -3.292240 0.571210 -23.510621 11.680821 -19.324180 1.995374 11.873967 16.802127 -27.433942 0.000000 0.000000 0.000000 -7.125000 0.000000 0.000000 -20.143348 56.766193 5.976152 0.000000 0.000000 0.000000 -6.558976 3.219252 9.964285 -19.024750 -29.449458 -5.043022 -21.354361 19.312811 -4.775440 0.000000 0.000000 0.000000 7.125000 0.000000 0.000000 3.977866 24.854059 1.941968
-11.690981 17.488352 2.252188 129.641693 86.598667 135.610903 0.000000 0.000000 0.000000 -26.318888 0.945880 9.703093 0.211898 2.962293 8.173871 -0.064354 -14.217993 -9.208603 0.060372 -1.572156 -4.324805 0.000000 0.000000 0.000000 22.037165 3.527264 -36.875586 -1.480107 -7.686906 21.767099 1.308981 -20.122954 -11.797203 -0.638456 -5.107626 14.216759 -4.271193 -1.816994 3.256121 2.151101 -2.538291 0.111887 4.726532 -1.232569 -1.426642 -7.157264 0.178795 -13.179750 -1.437810 5.105483 39.290686 1.695402 1.468746 16.210979 0.000000 0.000000 0.000000 -3.516799 0.598303 -24.523617 11.682002 -19.326010 1.995813 12.246809 17.549078 -27.893701 0.000000 0.000000 0.000000 -7.125000 0.000000 0.000000 -20.066193 57.274678 6.201588 0.000000 0.000000 0.000000 -6.008033 3.446823 9.263859 -19.105050 -29.548885 -5.082588 -22.212994 20.157179 -4.549804 0.000000 0.000000 0.000000 7.125000 0.000000 0.000000 3.335339 25.066514 1.610750
